<?xml version="1.0" encoding="iso-8859-1"?>
<!-- Generator: Adobe Illustrator 19.0.0, SVG Export Plug-In . SVG Version: 6.00 Build 0)  -->
<svg version="1.1" id="Capa_1" xmlns="http://www.w3.org/2000/svg" xmlns:xlink="http://www.w3.org/1999/xlink" x="0px" y="0px"
	 viewBox="0 0 481.28 481.28" style="enable-background:new 0 0 481.28 481.28;" xml:space="preserve">
<g>
	<g>
		<path fill="#23d997" d="M445.44,51.2h-92.16V10.24c0-5.632-4.608-10.24-10.24-10.24h-102.4c-5.632,0-10.24,4.608-10.24,10.24V51.2h-81.92V10.24
			c0-5.632-4.608-10.24-10.24-10.24H35.84C30.208,0,25.6,4.608,25.6,10.24v358.4c0,5.632,4.608,10.24,10.24,10.24H128v92.16
			c0,5.632,4.608,10.24,10.24,10.24h102.4c5.632,0,10.24-4.608,10.24-10.24v-92.16h81.92v92.16c0,5.632,4.608,10.24,10.24,10.24
			h102.4c5.632,0,10.24-4.608,10.24-10.24V61.44C455.68,55.808,451.072,51.2,445.44,51.2z M66.56,138.24
			c0,3.072-2.048,5.12-5.12,5.12s-5.12-2.048-5.12-5.12V35.84c0-3.072,2.048-5.12,5.12-5.12s5.12,2.048,5.12,5.12V138.24z
			 M92.16,317.44c0,3.072-2.048,5.12-5.12,5.12c-3.072,0-5.12-2.048-5.12-5.12v-25.6c0-3.072,2.048-5.12,5.12-5.12
			c3.072,0,5.12,2.048,5.12,5.12V317.44z M92.16,240.64c0,3.072-2.048,5.12-5.12,5.12c-3.072,0-5.12-2.048-5.12-5.12v-51.2
			c0-3.072,2.048-5.12,5.12-5.12c3.072,0,5.12,2.048,5.12,5.12V240.64z M92.16,112.64c0,3.072-2.048,5.12-5.12,5.12
			c-3.072,0-5.12-2.048-5.12-5.12v-51.2c0-3.072,2.048-5.12,5.12-5.12c3.072,0,5.12,2.048,5.12,5.12V112.64z M168.96,343.04
			c0,3.072-2.048,5.12-5.12,5.12c-3.072,0-5.12-2.048-5.12-5.12v-76.8c0-3.072,2.048-5.12,5.12-5.12c3.072,0,5.12,2.048,5.12,5.12
			V343.04z M194.56,419.84c0,3.072-2.048,5.12-5.12,5.12c-3.072,0-5.12-2.048-5.12-5.12v-128c0-3.072,2.048-5.12,5.12-5.12
			c3.072,0,5.12,2.048,5.12,5.12V419.84z M194.56,189.44c0,3.072-2.048,5.12-5.12,5.12c-3.072,0-5.12-2.048-5.12-5.12v-51.2
			c0-3.072,2.048-5.12,5.12-5.12c3.072,0,5.12,2.048,5.12,5.12V189.44z M220.16,215.04c0,3.072-2.048,5.12-5.12,5.12
			c-3.072,0-5.12-2.048-5.12-5.12v-128c0-3.072,2.048-5.12,5.12-5.12c3.072,0,5.12,2.048,5.12,5.12V215.04z M271.36,317.44
			c0,3.072-2.048,5.12-5.12,5.12c-3.072,0-5.12-2.048-5.12-5.12v-128c0-3.072,2.048-5.12,5.12-5.12c3.072,0,5.12,2.048,5.12,5.12
			V317.44z M296.96,163.84c0,3.072-2.048,5.12-5.12,5.12c-3.072,0-5.12-2.048-5.12-5.12v-25.6c0-3.072,2.048-5.12,5.12-5.12
			c3.072,0,5.12,2.048,5.12,5.12V163.84z M296.96,87.04c0,3.072-2.048,5.12-5.12,5.12c-3.072,0-5.12-2.048-5.12-5.12v-51.2
			c0-3.072,2.048-5.12,5.12-5.12c3.072,0,5.12,2.048,5.12,5.12V87.04z M322.56,266.24c0,3.072-2.048,5.12-5.12,5.12
			c-3.072,0-5.12-2.048-5.12-5.12v-153.6c0-3.072,2.048-5.12,5.12-5.12c3.072,0,5.12,2.048,5.12,5.12V266.24z M373.76,445.44
			c0,3.072-2.048,5.12-5.12,5.12c-3.072,0-5.12-2.048-5.12-5.12v-102.4c0-3.072,2.048-5.12,5.12-5.12c3.072,0,5.12,2.048,5.12,5.12
			V445.44z M373.76,163.84c0,3.072-2.048,5.12-5.12,5.12c-3.072,0-5.12-2.048-5.12-5.12v-25.6c0-3.072,2.048-5.12,5.12-5.12
			c3.072,0,5.12,2.048,5.12,5.12V163.84z M399.36,394.24c0,3.072-2.048,5.12-5.12,5.12c-3.072,0-5.12-2.048-5.12-5.12v-102.4
			c0-3.072,2.048-5.12,5.12-5.12c3.072,0,5.12,2.048,5.12,5.12V394.24z M424.96,266.24c0,3.072-2.048,5.12-5.12,5.12
			c-3.072,0-5.12-2.048-5.12-5.12v-76.8c0-3.072,2.048-5.12,5.12-5.12c3.072,0,5.12,2.048,5.12,5.12V266.24z"/>
	</g>
</g>
<g>
</g>
<g>
</g>
<g>
</g>
<g>
</g>
<g>
</g>
<g>
</g>
<g>
</g>
<g>
</g>
<g>
</g>
<g>
</g>
<g>
</g>
<g>
</g>
<g>
</g>
<g>
</g>
<g>
</g>
</svg>
